# AST/ASF file generated using VICON BodyLanguage
# -----------------------------------------------
:version 1.10
:name VICON
:units
  mass 1.0
  length 0.45
  angle deg
:documentation
   .ast/.asf automatically generated from VICON data using
   VICON BodyBuilder and BodyLanguage model FoxedUp or BRILLIANT.MOD
:root
   order TX TY TZ RX RY RZ
   axis XYZ
   position 0 0 0  
   orientation 0 0 0 
:bonedata
  begin
     id 1 
     name lhipjoint
     direction 0.78388 -0.462562 0.414208 
     length 3.01181 
     axis 0 0 0  XYZ
  end
  begin
     id 2 
     name lfemur
     direction 0.34202 -0.939693 0  
     length 6.04673  
     axis 0 0 20  XYZ
    dof rx ry rz
    limits (-160.0 20.0)
           (-70.0 70.0)
           (-60.0 70.0)
  end
  begin
     id 3 
     name ltibia
     direction 0.34202 -0.939693 0   
     length 7.211   
     axis 0 0 20   XYZ
    dof rx
    limits (-10.0 170.0)
  end
  begin
     id 4 
     name lfoot
     direction 0.121887 -0.334882 0.934344   
     length 2.13567   
     axis -90 7.62852e-016 20   XYZ
    dof rx rz
    limits (-45.0 90.0)
           (-70.0 20.0)
  end
  begin
     id 5 
     name ltoes
     direction 1.53555e-011 -4.2179e-011 1   
     length 1.05957   
     axis -90 7.62852e-016 20   XYZ
    dof rx
    limits (-90.0 20.0)
  end
  begin
     id 6 
     name rhipjoint
     direction -0.769387 -0.475875 0.426129   
     length 2.92756  
     axis 0 0 0  XYZ 
  end
  begin
     id 7 
     name rfemur
     direction -0.34202 -0.939693 0   
     length 6.35468   
     axis 0 0 -20   XYZ
    dof rx ry rz
    limits (-160.0 20.0)
           (-70.0 70.0)
           (-70.0 60.0)
  end
  begin
     id 8 
     name rtibia
     direction -0.34202 -0.939693 0   
     length 7.37886   
     axis 0 0 -20   XYZ
    dof rx
    limits (-10.0 170.0)
 end
 begin
     id 9 
     name rfoot
     direction -0.101763 -0.279592 0.954711   
     length 2.21478  
     axis -90 -7.62852e-016 -20   XYZ
    dof rx rz
    limits (-45.0 90.0)
           (-20.0 70.0)
  end
  begin
     id 10 
     name rtoes
     direction -1.53494e-011 -4.21851e-011 1   
     length 1.10506   
     axis -90 -7.62852e-016 -20   XYZ
    dof rx
    limits (-90.0 20.0)
  end
  begin
     id 11 
     name lowerback
     direction 0.00747405 0.999267 0.0375481   
     length 2.13259   
     axis 0 0 0   XYZ
    dof rx ry rz
    limits (-20.0 45.0)
           (-30.0 30.0)
           (-30.0 30.0)
  end
  begin
     id 12 
     name upperback
     direction 0.00661626 0.996177 0.0871029   
     length 2.10528   
     axis 0 0 0   XYZ
    dof rx ry rz
    limits (-20.0 45.0)
           (-30.0 30.0)
           (-30.0 30.0)
  end
  begin
     id 13 
     name thorax
     direction 0.00320659 0.997679 0.0680167   
     length 2.11338   
     axis 0 0 0   XYZ
    dof rx ry rz
    limits (-20.0 45.0)
           (-30.0 30.0)
           (-30.0 30.0)
  end
  begin
     id 14 
     name lowerneck
     direction 0.0374841 0.973033 0.227602   
     length 1.42765   
     axis 0 0 0   XYZ
    dof rx ry rz
    limits (-20.0 45.0)
           (-30.0 30.0)
           (-30.0 30.0)
  end
  begin
     id 15 
     name upperneck
     direction 0.00481585 0.989155 -0.146795   
     length 1.47593   
     axis 0 0 0   XYZ
    dof rx ry rz
    limits (-20.0 45.0)
           (-30.0 30.0)
           (-30.0 30.0)
  end
  begin
     id 16
     name head
     direction -0.00292522 0.997206 -0.0746423  
     length 1.48116  
     axis 0 0 0   XYZ
    dof rx ry rz
    limits (-20.0 45.0)
           (-30.0 30.0)
           (-30.0 30.0)
  end
  begin
     id 17 
     name lclavicle
     direction 0.951444 0.305606 0.0368784  
     length 3.01855  
     axis 0 0 0   XYZ
    dof ry rz
    limits (-20.0 10.0)
           (0.0 20.0)
  end
  begin
     id 18 
     name lhumerus
     direction 1 -4.48977e-011 2.61664e-027   
     length 5.52731   
     axis 180 -30 -90   XYZ
    dof rx ry rz
    limits (-60.0 90.0)
           (-90.0 90.0)
           (-90.0 90.0)
  end
  begin
     id 19
     name lradius
     direction 1 -4.48944e-011 8.22157e-027   
     length 3.11059   
     axis 180 -30 -90   XYZ
    dof rx
    limits (-10.0 170.0)
  end
  begin
     id 20
     name lwrist
     direction 1 -4.48976e-011 1.5779e-026   
     length 1.5553   
     axis -1.15221e-014 90 90   XYZ
    dof ry
    limits (-180.0 0.0)
 end
  begin
     id 21 
     name lhand
     direction 1 -4.49025e-011 3.1558e-026   
     length 0.419626   
     axis -2.01367e-014 90 90   XYZ
    dof rx rz
    limits (-90.0 90.0)
           (-45.0 45.0)
  end
  begin
     id 22 
     name lfingers
     direction 1 -4.4904e-011 6.31161e-026   
     length 0.338313   
     axis -4.02734e-014 90 90   XYZ
    dof rx
    limits (0.0 90.0)
  end
  begin
     id 23
     name lthumb
     direction 0.707107 -6.35004e-011 0.707107   
     length 0.485752   
     axis -90 45 2.85299e-015   XYZ
    dof rx rz
    limits (-45.0 45.0)
           (-45.0 45.0)
  end
  begin
     id 24 
     name rclavicle
     direction -0.968876 0.223791 0.105816   
     length 3.04177  
     axis 0 0 0   XYZ 
    dof ry rz
    limits (-10.0 20.0)
           (-20.0 0.0)
  end
  begin
     id 25 
     name rhumerus
     direction -1 -4.48962e-011 -1.01384e-027  
     length 5.25396   
     axis 180 30 90   XYZ
    dof rx ry rz
    limits (-90.0 60.0)
           (-90.0 90.0)
           (-90.0 90.0)
  end
  begin
     id 26 
     name rradius
     direction -1 -4.48955e-011 8.88542e-027   
     length 3.10567   
     axis 180 30 90   XYZ
    dof rx
    limits (-10.0 170.0)
  end
  begin
     id 27 
     name rwrist
     direction -1 -4.48994e-011 1.5779e-026   
     length 1.55283   
     axis -1.15221e-014 -90 -90   XYZ
    dof ry
    limits (-180.0 0.0)
  end
  begin
     id 28
     name rhand
     direction -1 -4.48891e-011 3.1558e-026   
     length 0.498676   
     axis -2.01367e-014 -90 -90   XYZ
    dof rx rz
    limits (-90.0 90.0)
           (-45.0 45.0)
  end
  begin
     id 29
     name rfingers
     direction -1 -4.48972e-011 6.31161e-026   
     length 0.402045   
     axis -4.02734e-014 -90 -90   XYZ
    dof rx
    limits (0.0 90.0)
  end
  begin
     id 30
     name rthumb
     direction -0.707107 -6.34849e-011 0.707107   
     length 0.577259   
     axis -90 -45 -2.85299e-015   XYZ
    dof rx rz
    limits (-45.0 45.0)
           (-45.0 45.0)
  end
:hierarchy
  begin
    root lhipjoint rhipjoint lowerback
    lhipjoint lfemur
    lfemur ltibia
    ltibia lfoot
    lfoot ltoes
    rhipjoint rfemur
    rfemur rtibia
    rtibia rfoot
    rfoot rtoes
    lowerback upperback
    upperback thorax
    thorax lowerneck lclavicle rclavicle
    lowerneck upperneck
    upperneck head
    lclavicle lhumerus
    lhumerus lradius
    lradius lwrist
    lwrist lhand lthumb
    lhand lfingers
    rclavicle rhumerus
    rhumerus rradius
    rradius rwrist
    rwrist rhand rthumb
    rhand rfingers
  end

#!OML:ASF H:\Pregnant\Project 1\Capture day 1\Session 1\femalepreg.ASF
:FULLY-SPECIFIED
:DEGREES
193
root -1.46802 15.2191 27.8216 -171.258 -69.8379 196.411
lowerback -15.5521 4.7448 4.30406
upperback -3.98394 5.33309 0.170702
thorax 4.82348 2.55495 -1.20044
lowerneck -13.2031 -12.7831 -10.9846
upperneck 17.8968 -17.9258 10.6863
head 9.82021 -8.21391 2.93956
rclavicle -4.83792e-014 -5.54112e-014
rhumerus 34.1017 -57.0917 -44.2082
rradius 31.5337
rwrist -19.5025
rhand -27.9665 -31.2197
rfingers 7.12502
rthumb -1.35352 -61.1951
lclavicle -4.83792e-014 -5.54112e-014
lhumerus -68.1838 -9.8888 86.2094
lradius 114.799
lwrist 45.915
lhand -26.489 -20.317
lfingers 7.12502
lthumb 0.073426 9.66278
rfemur -47.1852 -2.29874 21.9641
rtibia 41.4049
rfoot -11.6724 -21.041
rtoes -13.9319
lfemur -45.2269 -27.6339 11.2265
ltibia 31.5455
lfoot -19.1609 -13.4826
ltoes -0.833352
194
root -1.44885 15.2395 27.7812 -170.679 -70.1561 195.798
lowerback -15.5117 4.71902 4.25453
upperback -3.96282 5.31595 0.110851
thorax 4.82454 2.54836 -1.24118
lowerneck -13.41 -12.6294 -10.8903
upperneck 17.8134 -17.655 10.5652
head 9.77498 -8.08487 2.92265
rclavicle -4.1869e-014 2.44505e-014
rhumerus 33.9863 -57.2638 -43.9755
rradius 31.6171
rwrist -19.5039
rhand -27.9908 -31.2796
rfingers 7.12502
rthumb -1.37705 -61.2549
lclavicle -4.1869e-014 2.44505e-014
lhumerus -67.7302 -10.2871 86.2908
lradius 114.525
lwrist 45.316
lhand -26.3289 -20.2152
lfingers 7.12502
lthumb 0.228119 9.76442
rfemur -47.1063 -2.44008 21.8802
rtibia 41.3103
rfoot -11.7273 -21.201
rtoes -13.5729
lfemur -44.6603 -27.2031 10.7867
ltibia 30.5028
lfoot -18.5891 -13.8487
ltoes -0.55756
195
root -1.4318 15.2578 27.7432 -170.033 -70.4265 195.135
lowerback -15.5166 4.69641 4.20744
upperback -3.93692 5.29943 0.0500837
thorax 4.8554 2.54209 -1.2806
lowerneck -13.6271 -12.4463 -10.752
upperneck 17.7344 -17.3449 10.4106
head 9.72177 -7.93782 2.89436
rclavicle -4.90253e-014 -3.4191e-014
rhumerus 34.0205 -57.4304 -43.8895
rradius 31.6729
rwrist -19.4839
rhand -28.0494 -31.3751
rfingers 7.12502
rthumb -1.43358 -61.35
lclavicle -4.90253e-014 -3.4191e-014
lhumerus -67.3211 -10.6658 86.3455
lradius 114.287
lwrist 44.6904
lhand -26.1393 -20.0771
lfingers 7.12502
lthumb 0.411225 9.90225
rfemur -47.0673 -2.49396 21.7495
rtibia 41.2505
rfoot -11.7845 -21.4109
rtoes -13.2058
lfemur -44.1352 -26.8376 10.4079
ltibia 29.4644
lfoot -17.9964 -14.2325
ltoes -0.240715
196
root -1.41664 15.2741 27.7076 -169.369 -70.6482 194.475
lowerback -15.5594 4.67846 4.17849
upperback -3.91313 5.28332 -0.0112192
thorax 4.90609 2.53584 -1.32798
lowerneck -13.8633 -12.2303 -10.5492
upperneck 17.6753 -16.9945 10.2108
head 9.66497 -7.77158 2.84713
rclavicle -5.59952e-014 -2.98177e-015
rhumerus 34.1357 -57.5587 -43.895
rradius 31.7158
rwrist -19.4785
rhand -28.1232 -31.4945
rfingers 7.12502
rthumb -1.50488 -61.4689
lclavicle -5.59952e-014 -2.98177e-015
lhumerus -66.9632 -11.0216 86.3711
lradius 114.086
lwrist 44.0997
lhand -25.9231 -19.9138
lfingers 7.12502
lthumb 0.620064 10.0651
rfemur -47.0659 -2.46353 21.5944
rtibia 41.2161
rfoot -11.8425 -21.6634
rtoes -12.8251
lfemur -43.6578 -26.5137 10.0924
ltibia 28.4549
lfoot -17.3879 -14.6236
ltoes 0.107011
197
root -1.40309 15.2886 27.6745 -168.722 -70.8173 193.86
lowerback -15.6341 4.66856 4.17899
upperback -3.89859 5.27028 -0.071615
thorax 4.9668 2.53067 -1.38836
lowerneck -14.1176 -11.9779 -10.2798
upperneck 17.6438 -16.6011 9.96431
head 9.60739 -7.585 2.78017
rclavicle 3.20789e-014 7.45443e-015
rhumerus 34.2704 -57.6221 -43.9331
rradius 31.7527
rwrist -19.5117
rhand -28.1883 -31.6279
rfingers 7.12502
rthumb -1.56778 -61.6019
lclavicle 3.20789e-014 7.45443e-015
lhumerus -66.6581 -11.3519 86.3726
lradius 113.919
lwrist 43.5904
lhand -25.6931 -19.7242
lfingers 7.12502
lthumb 0.842183 10.2539
rfemur -47.1017 -2.34488 21.4285
rtibia 41.1966
rfoot -11.8959 -21.9562
rtoes -12.4253
lfemur -43.2305 -26.2109 9.83737
ltibia 27.4955
lfoot -16.7861 -14.9781
ltoes 0.401605
198
root -1.39087 15.3015 27.644 -168.096 -70.9408 193.293
lowerback -15.7321 4.66071 4.20757
upperback -3.89691 5.25281 -0.12825
thorax 5.02817 2.52273 -1.46039
lowerneck -14.3881 -11.6827 -9.94236
upperneck 17.6408 -16.1565 9.66847
head 9.54888 -7.37448 2.69359
rclavicle 4.1546e-014 1.83876e-014
rhumerus 34.3912 -57.5873 -43.9694
rradius 31.788
rwrist -19.6065
rhand -28.2407 -31.7555
rfingers 7.12502
rthumb -1.61841 -61.7291
lclavicle 4.1546e-014 1.83876e-014
lhumerus -66.4126 -11.6452 86.3518
lradius 113.782
lwrist 43.1951
lhand -25.3862 -19.462
lfingers 7.12502
lthumb 1.1386 10.5147
rfemur -47.1707 -2.15748 21.2566
rtibia 41.1856
rfoot -11.9417 -22.2796
rtoes -12.0129
lfemur -42.8527 -25.9134 9.62323
ltibia 26.5998
lfoot -16.1971 -15.2841
ltoes 0.606544
